<svg xmlns="http://www.w3.org/2000/svg" width="19.104" height="19.104" viewBox="0 0 19.104 19.104"><defs><style>.a{fill:#333;}</style></defs><path class="a" d="M1730.539,353.009h-18.153a.476.476,0,0,1-.476-.476V334.381a.476.476,0,0,1,.476-.476h6.678a.476.476,0,0,1,.476.476,1.923,1.923,0,0,0,3.846,0,.476.476,0,0,1,.476-.476h6.678a.476.476,0,0,1,.476.476v18.153A.476.476,0,0,1,1730.539,353.009Zm-17.677-.951h17.2v-17.2H1724.3a2.875,2.875,0,0,1-5.67,0h-5.766Z" transform="translate(-1711.91 -333.905)"/><g transform="translate(4.977 6.016)"><path class="a" d="M1792.478,532.526a1.948,1.948,0,1,1,2.1-1.942A2.03,2.03,0,0,1,1792.478,532.526Zm0-2.932a1,1,0,1,0,1.151.99A1.081,1.081,0,0,0,1792.478,529.594Z" transform="translate(-1790.375 -522.307)"/><path class="a" d="M1842.159,437.5a.476.476,0,0,1-.476-.476v-7.8a.476.476,0,0,1,.449-.475,6.99,6.99,0,0,1,2.346.339,4.418,4.418,0,0,1,3.1,3.259.629.629,0,0,1-.324.7.641.641,0,0,1-.777-.141,6.738,6.738,0,0,0-3.844-1.243v5.356A.476.476,0,0,1,1842.159,437.5Zm.476-6.784a9.7,9.7,0,0,1,2.721.53,7.473,7.473,0,0,1,.952.408,3.587,3.587,0,0,0-2.128-1.66,6.137,6.137,0,0,0-1.545-.287Z" transform="translate(-1838.429 -428.748)"/></g></svg>