<svg xmlns="http://www.w3.org/2000/svg" width="18.811" height="18.676" viewBox="0 0 18.811 18.676"><defs><style>.a{fill:#010101;}</style></defs><g transform="translate(0 0)"><path class="a" d="M531.471,935.176a4.588,4.588,0,1,1,4.588-4.588A4.593,4.593,0,0,1,531.471,935.176Zm0-8.55a3.962,3.962,0,1,0,3.962,3.962A3.966,3.966,0,0,0,531.471,926.626Z" transform="translate(-517.248 -926)"/><path class="a" d="M315.25,1055.2a1.445,1.445,0,0,1-1.024-.426l-.3-.3a1.443,1.443,0,0,1-.094-1.945l8.589-10.432a.313.313,0,0,1,.483.4l-8.589,10.432a.82.82,0,0,0,.053,1.1l.3.3a.82.82,0,0,0,1.1.053l10.432-8.589a.313.313,0,1,1,.4.483l-10.432,8.589A1.445,1.445,0,0,1,315.25,1055.2Z" transform="translate(-312.768 -1037.14)"/><path class="a" d="M496.111,1086.351a.316.316,0,0,1-.084-.012,5.159,5.159,0,0,1-2.979-2.151,4.844,4.844,0,0,1-.678-1.523.313.313,0,0,1,.613-.128,4.318,4.318,0,0,0,.6,1.328,4.489,4.489,0,0,0,2.61,1.87.313.313,0,0,1-.084.615Z" transform="translate(-484.168 -1075.768)"/><path class="a" d="M296.313,1335.236a.313.313,0,0,1-.221-.534l1.04-1.041a.313.313,0,0,1,.443.443l-1.04,1.04A.312.312,0,0,1,296.313,1335.236Z" transform="translate(-296 -1316.56)"/></g></svg>