<svg xmlns="http://www.w3.org/2000/svg" width="22.23" height="28.085" viewBox="0 0 22.23 28.085"><defs><style>.a{fill:#010101;}</style></defs><g transform="translate(0 0)"><g transform="translate(0 8.545)"><path class="a" d="M2371.748,1758.146h-21.314a.458.458,0,0,1-.458-.457v-18.625a.458.458,0,0,1,.458-.458h21.314a.458.458,0,0,1,.458.458v18.625A.458.458,0,0,1,2371.748,1758.146Zm-20.857-.915h20.4v-17.71h-20.4Z" transform="translate(-2349.976 -1738.606)"/></g><g transform="translate(6.441 13.103)"><path class="a" d="M2457.734,1923.875a1.968,1.968,0,1,1,2.127-1.962A2.052,2.052,0,0,1,2457.734,1923.875Zm0-3.008a1.058,1.058,0,1,0,1.213,1.046A1.139,1.139,0,0,0,2457.734,1920.867Z" transform="translate(-2455.607 -1913.451)"/><path class="a" d="M2510.819,1822.267a.458.458,0,0,1-.458-.458v-8a.457.457,0,0,1,.431-.457,7.148,7.148,0,0,1,2.4.346,4.5,4.5,0,0,1,3.163,3.322.606.606,0,0,1-.317.687.627.627,0,0,1-.76-.138,6.968,6.968,0,0,0-4-1.288v5.528A.458.458,0,0,1,2510.819,1822.267Zm.457-6.9a9.423,9.423,0,0,1,3.874,1.009,3.684,3.684,0,0,0-2.248-1.808,6.344,6.344,0,0,0-1.626-.3Z" transform="translate(-2507.022 -1813.347)"/></g><g transform="translate(2.408 4.816)"><path class="a" d="M2406.417,1682.041a.457.457,0,0,1-.458-.457v-3.219h-15.583v3.219a.458.458,0,0,1-.915,0v-3.677a.458.458,0,0,1,.458-.457h16.5a.457.457,0,0,1,.458.457v3.677A.457.457,0,0,1,2406.417,1682.041Z" transform="translate(-2389.461 -1677.449)"/></g><g transform="translate(5.206 2.083)"><path class="a" d="M2446.709,1636.244a.457.457,0,0,1-.457-.457v-2.244h-9.988v2.244a.457.457,0,1,1-.915,0v-2.7a.457.457,0,0,1,.458-.457h10.9a.457.457,0,0,1,.458.457v2.7A.457.457,0,0,1,2446.709,1636.244Z" transform="translate(-2435.35 -1632.628)"/></g><g transform="translate(7.614)"><path class="a" d="M2481.379,1601.313a.457.457,0,0,1-.458-.457v-1.462h-5.172v1.462a.457.457,0,0,1-.915,0v-1.92a.458.458,0,0,1,.458-.458h6.086a.457.457,0,0,1,.457.458v1.92A.457.457,0,0,1,2481.379,1601.313Z" transform="translate(-2474.835 -1598.478)"/></g></g></svg>