<svg xmlns="http://www.w3.org/2000/svg" width="24" height="24" viewBox="0 0 24 24"><defs><style>.a{fill:#333;}</style></defs><path class="a" d="M1735.313,357.9h-22.8a.6.6,0,0,1-.6-.6V334.5a.6.6,0,0,1,.6-.6h8.389a.6.6,0,0,1,.6.6,2.416,2.416,0,0,0,4.832,0,.6.6,0,0,1,.6-.6h8.389a.6.6,0,0,1,.6.6v22.8A.6.6,0,0,1,1735.313,357.9Zm-22.207-1.2h21.61V335.1h-7.243a3.612,3.612,0,0,1-7.123,0h-7.243Z" transform="translate(-1711.91 -333.905)"/><g transform="translate(7.429 9.331)"><path class="a" d="M1792.478,532.526a1.948,1.948,0,1,1,2.1-1.942A2.03,2.03,0,0,1,1792.478,532.526Zm0-2.932a1,1,0,1,0,1.151.99A1.081,1.081,0,0,0,1792.478,529.594Z" transform="translate(-1790.375 -522.307)"/><path class="a" d="M1842.159,437.5a.476.476,0,0,1-.476-.476v-7.8a.476.476,0,0,1,.449-.475,6.99,6.99,0,0,1,2.346.339,4.418,4.418,0,0,1,3.1,3.259.629.629,0,0,1-.324.7.641.641,0,0,1-.777-.141,6.738,6.738,0,0,0-3.844-1.243v5.356A.476.476,0,0,1,1842.159,437.5Zm.476-6.784a9.7,9.7,0,0,1,2.721.53,7.473,7.473,0,0,1,.952.408,3.587,3.587,0,0,0-2.128-1.66,6.137,6.137,0,0,0-1.545-.287Z" transform="translate(-1838.429 -428.748)"/></g></svg>