<svg xmlns="http://www.w3.org/2000/svg" width="19.6" height="17.967" viewBox="0 0 19.6 17.967"><path d="M14.5,21.333c-2.174,0-3.97,2.019-4.7,2.972-.726-.953-2.522-2.972-4.7-2.972C2.29,21.333,0,23.921,0,27.1a6.025,6.025,0,0,0,1.894,4.459.4.4,0,0,0,.064.083L9.512,39.18a.408.408,0,0,0,.577,0l7.8-7.8.081-.078c.064-.06.127-.121.2-.2a.4.4,0,0,0,.073-.1A6.165,6.165,0,0,0,19.6,27.1C19.6,23.921,17.31,21.333,14.5,21.333Zm3.068,9.211a.38.38,0,0,0-.031.041c-.038.044-.08.083-.122.122L9.8,38.314,2.629,31.158a.41.41,0,0,0-.095-.122A5.193,5.193,0,0,1,.817,27.1c0-2.73,1.923-4.951,4.288-4.951,2.338,0,4.333,3.049,4.353,3.08a.425.425,0,0,0,.687,0c.02-.031,2.015-3.08,4.353-3.08,2.364,0,4.288,2.221,4.288,4.951A5.34,5.34,0,0,1,17.564,30.544Z" transform="translate(0 -21.333)"/></svg>