<svg xmlns="http://www.w3.org/2000/svg" width="23" height="23.002" viewBox="0 0 23 23.002"><path d="M22.882,10l0,0L13.5.62A2.117,2.117,0,0,0,10.5.62L1.124,10l-.009.01a2.117,2.117,0,0,0,1.409,3.608c.022,0,.044,0,.065,0h.374v6.9A2.481,2.481,0,0,0,5.442,23H9.113a.674.674,0,0,0,.674-.674V16.914a1.132,1.132,0,0,1,1.131-1.131h2.165a1.132,1.132,0,0,1,1.131,1.131v5.414a.674.674,0,0,0,.674.674h3.671a2.481,2.481,0,0,0,2.479-2.478v-6.9h.347A2.118,2.118,0,0,0,22.882,10Zm-.954,2.041a.765.765,0,0,1-.544.226H20.363a.674.674,0,0,0-.674.674v7.579a1.132,1.132,0,0,1-1.131,1.131h-3v-4.74a2.481,2.481,0,0,0-2.479-2.478H10.917a2.481,2.481,0,0,0-2.479,2.478v4.74h-3a1.132,1.132,0,0,1-1.131-1.131V12.944a.674.674,0,0,0-.674-.674H2.6a.769.769,0,0,1-.53-1.313h0l9.383-9.382a.769.769,0,0,1,1.088,0l9.381,9.38,0,0a.771.771,0,0,1,0,1.088Zm0,0" transform="translate(-0.5 0.001)"/></svg>