<svg xmlns="http://www.w3.org/2000/svg" width="16.618" height="20.846" viewBox="0 0 16.618 20.846">
  <defs>
    <style>
      .cls-1 {
        fill: #333;
      }
    </style>
  </defs>
  <g id="Group_14" data-name="Group 14" transform="translate(-1678.309 -916.5)">
    <path id="Path_5" data-name="Path 5" class="cls-1" d="M1682.188,1231.047a3.544,3.544,0,1,1,3.879-3.528A3.721,3.721,0,0,1,1682.188,1231.047Zm0-6.384a2.875,2.875,0,1,0,3.207,2.856A3.05,3.05,0,0,0,1682.188,1224.663Z" transform="translate(0 -293.701)"/>
    <path id="Path_6" data-name="Path 6" class="cls-1" d="M1836.66,934.154a.336.336,0,0,1-.336-.336V916.836a.336.336,0,0,1,.336-.336c3.8,0,6.484.919,7.968,2.732a5.559,5.559,0,0,1,1.161,4.327,4.451,4.451,0,0,1-2.9,3.283.336.336,0,0,1-.413-.472,3.813,3.813,0,0,0,.055-3.344,3.484,3.484,0,0,0-1.768-1.359,10.931,10.931,0,0,0-3.772-.607v12.758A.336.336,0,0,1,1836.66,934.154Zm.336-13.767c3.166.048,5.223.819,6.118,2.293a3.973,3.973,0,0,1,.279,3.182,3.808,3.808,0,0,0,1.733-2.416l0-.013a4.964,4.964,0,0,0-1.028-3.783c-1.31-1.592-3.7-2.424-7.1-2.475Z" transform="translate(-150.929)"/>
  </g>
</svg>
